<svg width="736" height="121" viewBox="0 0 736 121" fill="none" xmlns="http://www.w3.org/2000/svg">
<g filter="url(#filter0_d_325_1774)">
<rect x="15" y="11" width="706" height="91" rx="8" fill="white"/>
</g>
<path d="M257.95 53.5339H245.46V58.7104H252.648C251.979 61.9999 249.178 63.8899 245.46 63.8899C244.419 63.8916 243.389 63.688 242.427 63.2906C241.465 62.8932 240.592 62.3098 239.856 61.574C239.12 60.8382 238.537 59.9644 238.14 59.0027C237.743 58.041 237.539 57.0104 237.541 55.9699C237.539 54.9295 237.743 53.899 238.14 52.9375C238.538 51.976 239.121 51.1023 239.856 50.3667C240.592 49.631 241.466 49.0478 242.427 48.6505C243.389 48.2532 244.419 48.0496 245.46 48.0514C247.348 48.0514 249.055 48.7219 250.395 49.8184L254.295 45.9199C251.919 43.8484 248.872 42.5704 245.46 42.5704C243.698 42.5652 241.953 42.9083 240.325 43.58C238.697 44.2516 237.218 45.2385 235.972 46.484C234.727 47.7294 233.74 49.2087 233.068 50.8369C232.397 52.4652 232.054 54.2101 232.059 55.9714C232.053 57.7327 232.396 59.4777 233.068 61.106C233.739 62.7343 234.726 64.2138 235.972 65.4592C237.217 66.7047 238.697 67.6916 240.325 68.3632C241.953 69.0347 243.698 69.3777 245.46 69.3724C252.16 69.3724 258.253 64.4989 258.253 55.9714C258.253 55.1794 258.132 54.3259 257.95 53.5339Z" fill="#28B446"/>
<path d="M295.063 60.0078C295.063 59.5928 294.998 59.2266 294.868 58.9092C294.746 58.5837 294.526 58.2907 294.208 58.0303C293.899 57.7699 293.468 57.5216 292.915 57.2856C292.369 57.0496 291.678 56.8096 290.839 56.5654C289.96 56.305 289.167 56.0161 288.459 55.6987C287.751 55.3732 287.145 55.0029 286.64 54.5879C286.136 54.1729 285.749 53.6968 285.48 53.1597C285.212 52.6226 285.078 52.0081 285.078 51.3164C285.078 50.6247 285.22 49.9858 285.505 49.3999C285.79 48.814 286.197 48.3053 286.726 47.874C287.263 47.4346 287.902 47.0928 288.642 46.8486C289.383 46.6045 290.209 46.4824 291.12 46.4824C292.455 46.4824 293.586 46.7388 294.514 47.2515C295.45 47.756 296.162 48.4193 296.65 49.2412C297.138 50.055 297.382 50.9258 297.382 51.8535H295.039C295.039 51.1862 294.896 50.5962 294.611 50.0835C294.326 49.5627 293.895 49.1558 293.317 48.8628C292.74 48.5617 292.007 48.4111 291.12 48.4111C290.282 48.4111 289.59 48.5373 289.045 48.7896C288.5 49.0418 288.093 49.3836 287.824 49.8149C287.564 50.2463 287.434 50.7386 287.434 51.292C287.434 51.6663 287.511 52.0081 287.666 52.3174C287.828 52.6185 288.076 52.8993 288.41 53.1597C288.752 53.4201 289.183 53.6602 289.704 53.8799C290.233 54.0996 290.864 54.3112 291.596 54.5146C292.605 54.7995 293.476 55.1169 294.208 55.4668C294.941 55.8167 295.543 56.2114 296.015 56.6509C296.495 57.0822 296.849 57.5745 297.077 58.1279C297.313 58.6732 297.431 59.2917 297.431 59.9834C297.431 60.7077 297.285 61.3628 296.992 61.9487C296.699 62.5347 296.28 63.0352 295.734 63.4502C295.189 63.8652 294.534 64.1867 293.769 64.4146C293.012 64.6343 292.166 64.7441 291.23 64.7441C290.408 64.7441 289.598 64.6302 288.801 64.4023C288.011 64.1745 287.291 63.8327 286.64 63.377C285.997 62.9212 285.48 62.3597 285.09 61.6924C284.707 61.0169 284.516 60.2357 284.516 59.3486H286.86C286.86 59.959 286.978 60.4839 287.214 60.9233C287.45 61.3547 287.771 61.7127 288.178 61.9976C288.593 62.2824 289.061 62.494 289.582 62.6323C290.111 62.7625 290.66 62.8276 291.23 62.8276C292.052 62.8276 292.748 62.7137 293.317 62.4858C293.887 62.258 294.318 61.9325 294.611 61.5093C294.912 61.0861 295.063 60.5856 295.063 60.0078ZM302.546 51.292V64.5H300.275V51.292H302.546ZM300.104 47.7886C300.104 47.4224 300.214 47.1131 300.434 46.8608C300.662 46.6086 300.996 46.4824 301.435 46.4824C301.866 46.4824 302.196 46.6086 302.424 46.8608C302.66 47.1131 302.778 47.4224 302.778 47.7886C302.778 48.1385 302.66 48.4396 302.424 48.6919C302.196 48.936 301.866 49.0581 301.435 49.0581C300.996 49.0581 300.662 48.936 300.434 48.6919C300.214 48.4396 300.104 48.1385 300.104 47.7886ZM314.729 51.292H316.779V64.2192C316.779 65.383 316.543 66.3758 316.071 67.1978C315.599 68.0197 314.94 68.6423 314.094 69.0654C313.256 69.4967 312.287 69.7124 311.188 69.7124C310.733 69.7124 310.196 69.6392 309.577 69.4927C308.967 69.3543 308.365 69.1143 307.771 68.7725C307.185 68.4388 306.692 67.9871 306.293 67.4175L307.478 66.0747C308.031 66.742 308.609 67.2059 309.211 67.4663C309.821 67.7267 310.424 67.8569 311.018 67.8569C311.734 67.8569 312.352 67.7227 312.873 67.4541C313.394 67.1855 313.797 66.7868 314.082 66.2578C314.375 65.737 314.521 65.0941 314.521 64.3291V54.1973L314.729 51.292ZM305.634 58.0425V57.7861C305.634 56.777 305.752 55.8615 305.988 55.0396C306.232 54.2095 306.578 53.4974 307.026 52.9033C307.482 52.3092 308.031 51.8535 308.674 51.5361C309.317 51.2106 310.041 51.0479 310.847 51.0479C311.677 51.0479 312.401 51.1943 313.02 51.4873C313.646 51.7721 314.175 52.1912 314.606 52.7446C315.046 53.2899 315.392 53.9491 315.644 54.7222C315.896 55.4953 316.071 56.3701 316.169 57.3467V58.4697C316.079 59.4382 315.904 60.3089 315.644 61.082C315.392 61.8551 315.046 62.5143 314.606 63.0596C314.175 63.6048 313.646 64.0239 313.02 64.3169C312.393 64.6017 311.66 64.7441 310.822 64.7441C310.033 64.7441 309.317 64.5773 308.674 64.2437C308.039 63.91 307.494 63.4421 307.038 62.8398C306.582 62.2376 306.232 61.5296 305.988 60.7158C305.752 59.8939 305.634 59.0028 305.634 58.0425ZM307.893 57.7861V58.0425C307.893 58.7017 307.958 59.3201 308.088 59.8979C308.226 60.4757 308.434 60.9844 308.71 61.4238C308.995 61.8633 309.357 62.2091 309.797 62.4614C310.236 62.7056 310.761 62.8276 311.372 62.8276C312.12 62.8276 312.739 62.6689 313.227 62.3516C313.715 62.0342 314.102 61.6151 314.387 61.0942C314.68 60.5734 314.908 60.0078 315.07 59.3975V56.4556C314.981 56.008 314.842 55.5767 314.655 55.1616C314.476 54.7384 314.24 54.3641 313.947 54.0386C313.662 53.7049 313.308 53.4404 312.885 53.2451C312.462 53.0498 311.966 52.9521 311.396 52.9521C310.778 52.9521 310.244 53.0824 309.797 53.3428C309.357 53.5951 308.995 53.945 308.71 54.3926C308.434 54.832 308.226 55.3447 308.088 55.9307C307.958 56.5085 307.893 57.127 307.893 57.7861ZM322.468 54.1118V64.5H320.209V51.292H322.346L322.468 54.1118ZM321.931 57.3955L320.991 57.3589C320.999 56.4556 321.133 55.6214 321.394 54.8564C321.654 54.0833 322.02 53.4119 322.492 52.8423C322.964 52.2726 323.526 51.8332 324.177 51.5239C324.836 51.2065 325.564 51.0479 326.362 51.0479C327.013 51.0479 327.599 51.1374 328.12 51.3164C328.64 51.4873 329.084 51.764 329.45 52.1465C329.825 52.529 330.109 53.0254 330.305 53.6357C330.5 54.238 330.598 54.9744 330.598 55.8452V64.5H328.327V55.8208C328.327 55.1291 328.225 54.5757 328.022 54.1606C327.819 53.7375 327.521 53.4323 327.131 53.2451C326.74 53.0498 326.26 52.9521 325.69 52.9521C325.129 52.9521 324.616 53.0701 324.152 53.3062C323.697 53.5422 323.302 53.8677 322.968 54.2827C322.643 54.6978 322.386 55.1738 322.199 55.7109C322.02 56.2399 321.931 56.8014 321.931 57.3955ZM342.683 51.292V64.5H340.412V51.292H342.683ZM340.241 47.7886C340.241 47.4224 340.351 47.1131 340.571 46.8608C340.799 46.6086 341.132 46.4824 341.572 46.4824C342.003 46.4824 342.333 46.6086 342.561 46.8608C342.797 47.1131 342.915 47.4224 342.915 47.7886C342.915 48.1385 342.797 48.4396 342.561 48.6919C342.333 48.936 342.003 49.0581 341.572 49.0581C341.132 49.0581 340.799 48.936 340.571 48.6919C340.351 48.4396 340.241 48.1385 340.241 47.7886ZM348.566 54.1118V64.5H346.308V51.292H348.444L348.566 54.1118ZM348.029 57.3955L347.089 57.3589C347.097 56.4556 347.232 55.6214 347.492 54.8564C347.753 54.0833 348.119 53.4119 348.591 52.8423C349.063 52.2726 349.624 51.8332 350.275 51.5239C350.935 51.2065 351.663 51.0479 352.46 51.0479C353.111 51.0479 353.697 51.1374 354.218 51.3164C354.739 51.4873 355.183 51.764 355.549 52.1465C355.923 52.529 356.208 53.0254 356.403 53.6357C356.599 54.238 356.696 54.9744 356.696 55.8452V64.5H354.426V55.8208C354.426 55.1291 354.324 54.5757 354.121 54.1606C353.917 53.7375 353.62 53.4323 353.229 53.2451C352.839 53.0498 352.359 52.9521 351.789 52.9521C351.228 52.9521 350.715 53.0701 350.251 53.3062C349.795 53.5422 349.401 53.8677 349.067 54.2827C348.741 54.6978 348.485 55.1738 348.298 55.7109C348.119 56.2399 348.029 56.8014 348.029 57.3955ZM369.672 62.1562L373.066 51.292H374.555L374.262 53.4526L370.808 64.5H369.355L369.672 62.1562ZM367.39 51.292L370.283 62.2783L370.49 64.5H368.964L365.131 51.292H367.39ZM377.802 62.1929L380.561 51.292H382.807L378.974 64.5H377.46L377.802 62.1929ZM374.885 51.292L378.205 61.9731L378.583 64.5H377.143L373.591 53.4282L373.298 51.292H374.885ZM387.58 51.292V64.5H385.31V51.292H387.58ZM385.139 47.7886C385.139 47.4224 385.249 47.1131 385.468 46.8608C385.696 46.6086 386.03 46.4824 386.469 46.4824C386.901 46.4824 387.23 46.6086 387.458 46.8608C387.694 47.1131 387.812 47.4224 387.812 47.7886C387.812 48.1385 387.694 48.4396 387.458 48.6919C387.23 48.936 386.901 49.0581 386.469 49.0581C386.03 49.0581 385.696 48.936 385.468 48.6919C385.249 48.4396 385.139 48.1385 385.139 47.7886ZM396.735 51.292V53.0254H389.594V51.292H396.735ZM392.011 48.0815H394.27V61.2285C394.27 61.6761 394.339 62.0138 394.477 62.2417C394.615 62.4696 394.794 62.6201 395.014 62.6934C395.234 62.7666 395.47 62.8032 395.722 62.8032C395.909 62.8032 396.105 62.7869 396.308 62.7544C396.52 62.7137 396.678 62.6812 396.784 62.6567L396.796 64.5C396.617 64.557 396.381 64.6099 396.088 64.6587C395.804 64.7157 395.458 64.7441 395.051 64.7441C394.497 64.7441 393.989 64.6343 393.525 64.4146C393.061 64.1948 392.691 63.8286 392.414 63.3159C392.146 62.7951 392.011 62.0952 392.011 61.2163V48.0815ZM401.643 45.75V64.5H399.384V45.75H401.643ZM401.105 57.3955L400.166 57.3589C400.174 56.4556 400.308 55.6214 400.568 54.8564C400.829 54.0833 401.195 53.4119 401.667 52.8423C402.139 52.2726 402.701 51.8332 403.352 51.5239C404.011 51.2065 404.739 51.0479 405.537 51.0479C406.188 51.0479 406.774 51.1374 407.294 51.3164C407.815 51.4873 408.259 51.764 408.625 52.1465C408.999 52.529 409.284 53.0254 409.479 53.6357C409.675 54.238 409.772 54.9744 409.772 55.8452V64.5H407.502V55.8208C407.502 55.1291 407.4 54.5757 407.197 54.1606C406.993 53.7375 406.696 53.4323 406.306 53.2451C405.915 53.0498 405.435 52.9521 404.865 52.9521C404.304 52.9521 403.791 53.0701 403.327 53.3062C402.871 53.5422 402.477 53.8677 402.143 54.2827C401.818 54.6978 401.561 55.1738 401.374 55.7109C401.195 56.2399 401.105 56.8014 401.105 57.3955ZM422.053 46.7266V64.5H419.697V46.7266H422.053ZM429.499 54.7222V56.6509H421.54V54.7222H429.499ZM430.708 46.7266V48.6553H421.54V46.7266H430.708ZM440.546 62.2417V55.4424C440.546 54.9215 440.441 54.4699 440.229 54.0874C440.026 53.6968 439.716 53.3957 439.301 53.1841C438.886 52.9725 438.374 52.8667 437.763 52.8667C437.194 52.8667 436.693 52.9644 436.262 53.1597C435.839 53.355 435.505 53.6113 435.261 53.9287C435.025 54.2461 434.907 54.5879 434.907 54.9541H432.648C432.648 54.4821 432.771 54.0142 433.015 53.5503C433.259 53.0864 433.609 52.6673 434.064 52.293C434.528 51.9105 435.082 51.6094 435.725 51.3896C436.376 51.1618 437.1 51.0479 437.897 51.0479C438.858 51.0479 439.704 51.2106 440.437 51.5361C441.177 51.8617 441.755 52.354 442.17 53.0132C442.593 53.6642 442.805 54.4821 442.805 55.4668V61.6191C442.805 62.0586 442.841 62.5265 442.915 63.0229C442.996 63.5194 443.114 63.9466 443.269 64.3047V64.5H440.913C440.799 64.2396 440.709 63.8937 440.644 63.4624C440.579 63.0229 440.546 62.616 440.546 62.2417ZM440.937 56.4922L440.961 58.0791H438.679C438.036 58.0791 437.462 58.132 436.958 58.2378C436.453 58.3354 436.03 58.486 435.688 58.6895C435.346 58.8929 435.086 59.1493 434.907 59.4585C434.728 59.7596 434.638 60.1136 434.638 60.5205C434.638 60.9355 434.732 61.314 434.919 61.6558C435.106 61.9976 435.387 62.2702 435.761 62.4736C436.144 62.6689 436.612 62.7666 437.165 62.7666C437.857 62.7666 438.467 62.6201 438.996 62.3271C439.525 62.0342 439.944 61.6761 440.253 61.2529C440.571 60.8298 440.742 60.4188 440.766 60.02L441.73 61.1064C441.674 61.4482 441.519 61.8267 441.267 62.2417C441.014 62.6567 440.677 63.0555 440.253 63.438C439.838 63.8123 439.342 64.1257 438.764 64.3779C438.194 64.6221 437.552 64.7441 436.835 64.7441C435.94 64.7441 435.155 64.5692 434.479 64.2192C433.812 63.8693 433.291 63.4014 432.917 62.8154C432.551 62.2214 432.368 61.5581 432.368 60.8257C432.368 60.1177 432.506 59.4951 432.783 58.958C433.059 58.4128 433.458 57.9611 433.979 57.603C434.5 57.2368 435.126 56.9601 435.859 56.7729C436.591 56.5858 437.409 56.4922 438.312 56.4922H440.937ZM451.643 62.8887C452.18 62.8887 452.676 62.7788 453.132 62.5591C453.588 62.3394 453.962 62.0382 454.255 61.6558C454.548 61.2651 454.715 60.8216 454.755 60.3252H456.904C456.863 61.1064 456.599 61.8348 456.11 62.5103C455.63 63.1776 455 63.7188 454.218 64.1338C453.437 64.5407 452.578 64.7441 451.643 64.7441C450.65 64.7441 449.783 64.5692 449.042 64.2192C448.31 63.8693 447.7 63.3892 447.211 62.7788C446.731 62.1685 446.369 61.4686 446.125 60.6792C445.889 59.8817 445.771 59.0394 445.771 58.1523V57.6396C445.771 56.7526 445.889 55.9144 446.125 55.125C446.369 54.3275 446.731 53.6235 447.211 53.0132C447.7 52.4028 448.31 51.9227 449.042 51.5728C449.783 51.2228 450.65 51.0479 451.643 51.0479C452.676 51.0479 453.579 51.2594 454.353 51.6826C455.126 52.0977 455.732 52.6673 456.171 53.3916C456.619 54.1077 456.863 54.9215 456.904 55.833H454.755C454.715 55.2878 454.56 54.7954 454.292 54.356C454.031 53.9165 453.673 53.5666 453.217 53.3062C452.77 53.0376 452.245 52.9033 451.643 52.9033C450.951 52.9033 450.369 53.0417 449.897 53.3184C449.433 53.5869 449.063 53.9531 448.786 54.417C448.518 54.8727 448.322 55.3813 448.2 55.9429C448.086 56.4963 448.029 57.0618 448.029 57.6396V58.1523C448.029 58.7301 448.086 59.2998 448.2 59.8613C448.314 60.4229 448.505 60.9315 448.774 61.3872C449.051 61.8429 449.421 62.2091 449.885 62.4858C450.357 62.7544 450.943 62.8887 451.643 62.8887ZM464.924 64.7441C464.004 64.7441 463.17 64.5895 462.421 64.2803C461.681 63.9629 461.042 63.5194 460.505 62.9497C459.976 62.38 459.569 61.7046 459.284 60.9233C458.999 60.1421 458.857 59.2876 458.857 58.3599V57.8472C458.857 56.7729 459.016 55.8167 459.333 54.9785C459.65 54.1322 460.082 53.416 460.627 52.8301C461.172 52.2441 461.791 51.8006 462.482 51.4995C463.174 51.1984 463.89 51.0479 464.631 51.0479C465.575 51.0479 466.389 51.2106 467.072 51.5361C467.764 51.8617 468.33 52.3174 468.769 52.9033C469.208 53.4811 469.534 54.1647 469.746 54.9541C469.957 55.7354 470.063 56.5898 470.063 57.5176V58.5308H460.2V56.6875H467.805V56.5166C467.772 55.9307 467.65 55.361 467.438 54.8076C467.235 54.2542 466.91 53.7985 466.462 53.4404C466.014 53.0824 465.404 52.9033 464.631 52.9033C464.118 52.9033 463.646 53.0132 463.215 53.2329C462.784 53.4445 462.413 53.7619 462.104 54.1851C461.795 54.6082 461.555 55.125 461.384 55.7354C461.213 56.3457 461.127 57.0496 461.127 57.8472V58.3599C461.127 58.9865 461.213 59.5765 461.384 60.1299C461.563 60.6751 461.819 61.1553 462.153 61.5703C462.495 61.9854 462.906 62.3109 463.386 62.5469C463.874 62.7829 464.427 62.9009 465.046 62.9009C465.843 62.9009 466.519 62.7381 467.072 62.4126C467.626 62.0871 468.11 61.6517 468.525 61.1064L469.892 62.1929C469.607 62.6242 469.245 63.0352 468.806 63.4258C468.366 63.8164 467.825 64.1338 467.182 64.3779C466.547 64.6221 465.795 64.7441 464.924 64.7441ZM472.688 45.75H474.958V61.9365L474.763 64.5H472.688V45.75ZM483.881 57.7861V58.0425C483.881 59.0028 483.767 59.8939 483.54 60.7158C483.312 61.5296 482.978 62.2376 482.539 62.8398C482.099 63.4421 481.562 63.91 480.927 64.2437C480.292 64.5773 479.564 64.7441 478.742 64.7441C477.904 64.7441 477.167 64.6017 476.533 64.3169C475.906 64.0239 475.377 63.6048 474.946 63.0596C474.514 62.5143 474.169 61.8551 473.908 61.082C473.656 60.3089 473.481 59.4382 473.383 58.4697V57.3467C473.481 56.3701 473.656 55.4953 473.908 54.7222C474.169 53.9491 474.514 53.2899 474.946 52.7446C475.377 52.1912 475.906 51.7721 476.533 51.4873C477.159 51.1943 477.888 51.0479 478.718 51.0479C479.548 51.0479 480.284 51.2106 480.927 51.5361C481.57 51.8535 482.107 52.3092 482.539 52.9033C482.978 53.4974 483.312 54.2095 483.54 55.0396C483.767 55.8615 483.881 56.777 483.881 57.7861ZM481.611 58.0425V57.7861C481.611 57.127 481.55 56.5085 481.428 55.9307C481.306 55.3447 481.11 54.832 480.842 54.3926C480.573 53.945 480.219 53.5951 479.78 53.3428C479.34 53.0824 478.799 52.9521 478.156 52.9521C477.587 52.9521 477.09 53.0498 476.667 53.2451C476.252 53.4404 475.898 53.7049 475.605 54.0386C475.312 54.3641 475.072 54.7384 474.885 55.1616C474.706 55.5767 474.571 56.008 474.482 56.4556V59.3975C474.612 59.9671 474.824 60.5164 475.117 61.0454C475.418 61.5662 475.817 61.9935 476.313 62.3271C476.818 62.6608 477.44 62.8276 478.181 62.8276C478.791 62.8276 479.312 62.7056 479.743 62.4614C480.183 62.2091 480.537 61.8633 480.805 61.4238C481.082 60.9844 481.285 60.4757 481.416 59.8979C481.546 59.3201 481.611 58.7017 481.611 58.0425ZM486.14 58.0425V57.7617C486.14 56.8096 486.278 55.9266 486.555 55.1128C486.831 54.2909 487.23 53.5788 487.751 52.9766C488.272 52.3662 488.903 51.8942 489.643 51.5605C490.384 51.2188 491.214 51.0479 492.133 51.0479C493.061 51.0479 493.895 51.2188 494.636 51.5605C495.384 51.8942 496.019 52.3662 496.54 52.9766C497.069 53.5788 497.472 54.2909 497.749 55.1128C498.025 55.9266 498.164 56.8096 498.164 57.7617V58.0425C498.164 58.9946 498.025 59.8776 497.749 60.6914C497.472 61.5052 497.069 62.2173 496.54 62.8276C496.019 63.4299 495.389 63.9019 494.648 64.2437C493.916 64.5773 493.085 64.7441 492.158 64.7441C491.23 64.7441 490.396 64.5773 489.655 64.2437C488.915 63.9019 488.28 63.4299 487.751 62.8276C487.23 62.2173 486.831 61.5052 486.555 60.6914C486.278 59.8776 486.14 58.9946 486.14 58.0425ZM488.398 57.7617V58.0425C488.398 58.7017 488.475 59.3242 488.63 59.9102C488.785 60.488 489.016 61.0007 489.326 61.4482C489.643 61.8958 490.038 62.2498 490.51 62.5103C490.982 62.7625 491.531 62.8887 492.158 62.8887C492.776 62.8887 493.317 62.7625 493.781 62.5103C494.253 62.2498 494.644 61.8958 494.953 61.4482C495.262 61.0007 495.494 60.488 495.649 59.9102C495.812 59.3242 495.893 58.7017 495.893 58.0425V57.7617C495.893 57.1107 495.812 56.4963 495.649 55.9185C495.494 55.3325 495.258 54.8158 494.941 54.3682C494.632 53.9124 494.241 53.5544 493.769 53.2939C493.305 53.0335 492.76 52.9033 492.133 52.9033C491.515 52.9033 490.97 53.0335 490.498 53.2939C490.034 53.5544 489.643 53.9124 489.326 54.3682C489.016 54.8158 488.785 55.3325 488.63 55.9185C488.475 56.4963 488.398 57.1107 488.398 57.7617ZM500.397 58.0425V57.7617C500.397 56.8096 500.536 55.9266 500.812 55.1128C501.089 54.2909 501.488 53.5788 502.009 52.9766C502.53 52.3662 503.16 51.8942 503.901 51.5605C504.641 51.2188 505.472 51.0479 506.391 51.0479C507.319 51.0479 508.153 51.2188 508.894 51.5605C509.642 51.8942 510.277 52.3662 510.798 52.9766C511.327 53.5788 511.73 54.2909 512.006 55.1128C512.283 55.9266 512.421 56.8096 512.421 57.7617V58.0425C512.421 58.9946 512.283 59.8776 512.006 60.6914C511.73 61.5052 511.327 62.2173 510.798 62.8276C510.277 63.4299 509.646 63.9019 508.906 64.2437C508.173 64.5773 507.343 64.7441 506.416 64.7441C505.488 64.7441 504.654 64.5773 503.913 64.2437C503.173 63.9019 502.538 63.4299 502.009 62.8276C501.488 62.2173 501.089 61.5052 500.812 60.6914C500.536 59.8776 500.397 58.9946 500.397 58.0425ZM502.656 57.7617V58.0425C502.656 58.7017 502.733 59.3242 502.888 59.9102C503.042 60.488 503.274 61.0007 503.583 61.4482C503.901 61.8958 504.296 62.2498 504.768 62.5103C505.24 62.7625 505.789 62.8887 506.416 62.8887C507.034 62.8887 507.575 62.7625 508.039 62.5103C508.511 62.2498 508.902 61.8958 509.211 61.4482C509.52 61.0007 509.752 60.488 509.907 59.9102C510.069 59.3242 510.151 58.7017 510.151 58.0425V57.7617C510.151 57.1107 510.069 56.4963 509.907 55.9185C509.752 55.3325 509.516 54.8158 509.199 54.3682C508.889 53.9124 508.499 53.5544 508.027 53.2939C507.563 53.0335 507.018 52.9033 506.391 52.9033C505.773 52.9033 505.227 53.0335 504.755 53.2939C504.292 53.5544 503.901 53.9124 503.583 54.3682C503.274 54.8158 503.042 55.3325 502.888 55.9185C502.733 56.4963 502.656 57.1107 502.656 57.7617ZM517.524 45.75V64.5H515.253V45.75H517.524ZM525.593 51.292L519.831 57.4565L516.608 60.8013L516.425 58.3965L518.732 55.6377L522.834 51.292H525.593ZM523.53 64.5L518.818 58.2012L519.99 56.187L526.191 64.5H523.53Z" fill="#2F2F2F"/>
<defs>
<filter id="filter0_d_325_1774" x="0" y="0" width="736" height="121" filterUnits="userSpaceOnUse" color-interpolation-filters="sRGB">
<feFlood flood-opacity="0" result="BackgroundImageFix"/>
<feColorMatrix in="SourceAlpha" type="matrix" values="0 0 0 0 0 0 0 0 0 0 0 0 0 0 0 0 0 0 127 0" result="hardAlpha"/>
<feOffset dy="4"/>
<feGaussianBlur stdDeviation="7.5"/>
<feComposite in2="hardAlpha" operator="out"/>
<feColorMatrix type="matrix" values="0 0 0 0 0 0 0 0 0 0 0 0 0 0 0 0 0 0 0.11 0"/>
<feBlend mode="normal" in2="BackgroundImageFix" result="effect1_dropShadow_325_1774"/>
<feBlend mode="normal" in="SourceGraphic" in2="effect1_dropShadow_325_1774" result="shape"/>
</filter>
</defs>
</svg>
