<svg width="736" height="121" viewBox="0 0 736 121" fill="none" xmlns="http://www.w3.org/2000/svg">
<g filter="url(#filter0_d_325_1767)">
<rect x="15" y="11" width="706" height="91" rx="8" fill="white"/>
</g>
<path d="M250.485 41.0029C242.202 41.0029 235.486 47.7184 235.486 56.0014C235.486 63.4864 240.97 69.6904 248.142 70.8199V60.3379H244.332V56.0014H248.142V52.6969C248.142 48.9349 250.381 46.8604 253.806 46.8604C255.447 46.8604 257.166 47.1529 257.166 47.1529V50.8414H255.27C253.41 50.8414 252.828 51.9994 252.828 53.1859V55.9984H256.984L256.32 60.3349H252.828V70.8169C259.999 69.6934 265.483 63.4879 265.483 56.0014C265.483 47.7184 258.768 41.0029 250.485 41.0029Z" fill="#3B5999"/>
<path d="M300.018 60.0078C300.018 59.5928 299.953 59.2266 299.823 58.9092C299.701 58.5837 299.481 58.2907 299.164 58.0303C298.854 57.7699 298.423 57.5216 297.87 57.2856C297.324 57.0496 296.633 56.8096 295.794 56.5654C294.916 56.305 294.122 56.0161 293.414 55.6987C292.706 55.3732 292.1 55.0029 291.595 54.5879C291.091 54.1729 290.704 53.6968 290.436 53.1597C290.167 52.6226 290.033 52.0081 290.033 51.3164C290.033 50.6247 290.175 49.9858 290.46 49.3999C290.745 48.814 291.152 48.3053 291.681 47.874C292.218 47.4346 292.857 47.0928 293.597 46.8486C294.338 46.6045 295.164 46.4824 296.075 46.4824C297.41 46.4824 298.541 46.7388 299.469 47.2515C300.405 47.756 301.117 48.4193 301.605 49.2412C302.093 50.055 302.337 50.9258 302.337 51.8535H299.994C299.994 51.1862 299.851 50.5962 299.566 50.0835C299.282 49.5627 298.85 49.1558 298.272 48.8628C297.695 48.5617 296.962 48.4111 296.075 48.4111C295.237 48.4111 294.545 48.5373 294 48.7896C293.455 49.0418 293.048 49.3836 292.779 49.8149C292.519 50.2463 292.389 50.7386 292.389 51.292C292.389 51.6663 292.466 52.0081 292.621 52.3174C292.783 52.6185 293.032 52.8993 293.365 53.1597C293.707 53.4201 294.138 53.6602 294.659 53.8799C295.188 54.0996 295.819 54.3112 296.551 54.5146C297.56 54.7995 298.431 55.1169 299.164 55.4668C299.896 55.8167 300.498 56.2114 300.97 56.6509C301.45 57.0822 301.804 57.5745 302.032 58.1279C302.268 58.6732 302.386 59.2917 302.386 59.9834C302.386 60.7077 302.24 61.3628 301.947 61.9487C301.654 62.5347 301.235 63.0352 300.689 63.4502C300.144 63.8652 299.489 64.1867 298.724 64.4146C297.967 64.6343 297.121 64.7441 296.185 64.7441C295.363 64.7441 294.553 64.6302 293.756 64.4023C292.966 64.1745 292.246 63.8327 291.595 63.377C290.952 62.9212 290.436 62.3597 290.045 61.6924C289.662 61.0169 289.471 60.2357 289.471 59.3486H291.815C291.815 59.959 291.933 60.4839 292.169 60.9233C292.405 61.3547 292.726 61.7127 293.133 61.9976C293.548 62.2824 294.016 62.494 294.537 62.6323C295.066 62.7625 295.615 62.8276 296.185 62.8276C297.007 62.8276 297.703 62.7137 298.272 62.4858C298.842 62.258 299.273 61.9325 299.566 61.5093C299.868 61.0861 300.018 60.5856 300.018 60.0078ZM307.501 51.292V64.5H305.23V51.292H307.501ZM305.06 47.7886C305.06 47.4224 305.169 47.1131 305.389 46.8608C305.617 46.6086 305.951 46.4824 306.39 46.4824C306.821 46.4824 307.151 46.6086 307.379 46.8608C307.615 47.1131 307.733 47.4224 307.733 47.7886C307.733 48.1385 307.615 48.4396 307.379 48.6919C307.151 48.936 306.821 49.0581 306.39 49.0581C305.951 49.0581 305.617 48.936 305.389 48.6919C305.169 48.4396 305.06 48.1385 305.06 47.7886ZM319.684 51.292H321.734V64.2192C321.734 65.383 321.498 66.3758 321.026 67.1978C320.554 68.0197 319.895 68.6423 319.049 69.0654C318.211 69.4967 317.242 69.7124 316.144 69.7124C315.688 69.7124 315.151 69.6392 314.532 69.4927C313.922 69.3543 313.32 69.1143 312.726 68.7725C312.14 68.4388 311.647 67.9871 311.249 67.4175L312.433 66.0747C312.986 66.742 313.564 67.2059 314.166 67.4663C314.776 67.7267 315.379 67.8569 315.973 67.8569C316.689 67.8569 317.307 67.7227 317.828 67.4541C318.349 67.1855 318.752 66.7868 319.037 66.2578C319.33 65.737 319.476 65.0941 319.476 64.3291V54.1973L319.684 51.292ZM310.589 58.0425V57.7861C310.589 56.777 310.707 55.8615 310.943 55.0396C311.188 54.2095 311.533 53.4974 311.981 52.9033C312.437 52.3092 312.986 51.8535 313.629 51.5361C314.272 51.2106 314.996 51.0479 315.802 51.0479C316.632 51.0479 317.356 51.1943 317.975 51.4873C318.601 51.7721 319.13 52.1912 319.562 52.7446C320.001 53.2899 320.347 53.9491 320.599 54.7222C320.851 55.4953 321.026 56.3701 321.124 57.3467V58.4697C321.035 59.4382 320.86 60.3089 320.599 61.082C320.347 61.8551 320.001 62.5143 319.562 63.0596C319.13 63.6048 318.601 64.0239 317.975 64.3169C317.348 64.6017 316.616 64.7441 315.777 64.7441C314.988 64.7441 314.272 64.5773 313.629 64.2437C312.994 63.91 312.449 63.4421 311.993 62.8398C311.537 62.2376 311.188 61.5296 310.943 60.7158C310.707 59.8939 310.589 59.0028 310.589 58.0425ZM312.848 57.7861V58.0425C312.848 58.7017 312.913 59.3201 313.043 59.8979C313.181 60.4757 313.389 60.9844 313.666 61.4238C313.95 61.8633 314.312 62.2091 314.752 62.4614C315.191 62.7056 315.716 62.8276 316.327 62.8276C317.075 62.8276 317.694 62.6689 318.182 62.3516C318.67 62.0342 319.057 61.6151 319.342 61.0942C319.635 60.5734 319.863 60.0078 320.025 59.3975V56.4556C319.936 56.008 319.798 55.5767 319.61 55.1616C319.431 54.7384 319.195 54.3641 318.902 54.0386C318.618 53.7049 318.264 53.4404 317.84 53.2451C317.417 53.0498 316.921 52.9521 316.351 52.9521C315.733 52.9521 315.2 53.0824 314.752 53.3428C314.312 53.5951 313.95 53.945 313.666 54.3926C313.389 54.832 313.181 55.3447 313.043 55.9307C312.913 56.5085 312.848 57.127 312.848 57.7861ZM327.423 54.1118V64.5H325.165V51.292H327.301L327.423 54.1118ZM326.886 57.3955L325.946 57.3589C325.954 56.4556 326.088 55.6214 326.349 54.8564C326.609 54.0833 326.975 53.4119 327.447 52.8423C327.919 52.2726 328.481 51.8332 329.132 51.5239C329.791 51.2065 330.519 51.0479 331.317 51.0479C331.968 51.0479 332.554 51.1374 333.075 51.3164C333.596 51.4873 334.039 51.764 334.405 52.1465C334.78 52.529 335.064 53.0254 335.26 53.6357C335.455 54.238 335.553 54.9744 335.553 55.8452V64.5H333.282V55.8208C333.282 55.1291 333.181 54.5757 332.977 54.1606C332.774 53.7375 332.477 53.4323 332.086 53.2451C331.695 53.0498 331.215 52.9521 330.646 52.9521C330.084 52.9521 329.571 53.0701 329.107 53.3062C328.652 53.5422 328.257 53.8677 327.923 54.2827C327.598 54.6978 327.341 55.1738 327.154 55.7109C326.975 56.2399 326.886 56.8014 326.886 57.3955ZM347.638 51.292V64.5H345.367V51.292H347.638ZM345.196 47.7886C345.196 47.4224 345.306 47.1131 345.526 46.8608C345.754 46.6086 346.087 46.4824 346.527 46.4824C346.958 46.4824 347.288 46.6086 347.516 46.8608C347.752 47.1131 347.87 47.4224 347.87 47.7886C347.87 48.1385 347.752 48.4396 347.516 48.6919C347.288 48.936 346.958 49.0581 346.527 49.0581C346.087 49.0581 345.754 48.936 345.526 48.6919C345.306 48.4396 345.196 48.1385 345.196 47.7886ZM353.521 54.1118V64.5H351.263V51.292H353.399L353.521 54.1118ZM352.984 57.3955L352.044 57.3589C352.053 56.4556 352.187 55.6214 352.447 54.8564C352.708 54.0833 353.074 53.4119 353.546 52.8423C354.018 52.2726 354.579 51.8332 355.23 51.5239C355.89 51.2065 356.618 51.0479 357.416 51.0479C358.067 51.0479 358.653 51.1374 359.173 51.3164C359.694 51.4873 360.138 51.764 360.504 52.1465C360.878 52.529 361.163 53.0254 361.358 53.6357C361.554 54.238 361.651 54.9744 361.651 55.8452V64.5H359.381V55.8208C359.381 55.1291 359.279 54.5757 359.076 54.1606C358.872 53.7375 358.575 53.4323 358.185 53.2451C357.794 53.0498 357.314 52.9521 356.744 52.9521C356.183 52.9521 355.67 53.0701 355.206 53.3062C354.75 53.5422 354.356 53.8677 354.022 54.2827C353.696 54.6978 353.44 55.1738 353.253 55.7109C353.074 56.2399 352.984 56.8014 352.984 57.3955ZM374.627 62.1562L378.021 51.292H379.51L379.217 53.4526L375.763 64.5H374.31L374.627 62.1562ZM372.345 51.292L375.238 62.2783L375.445 64.5H373.919L370.086 51.292H372.345ZM382.757 62.1929L385.516 51.292H387.762L383.929 64.5H382.416L382.757 62.1929ZM379.84 51.292L383.16 61.9731L383.539 64.5H382.098L378.546 53.4282L378.253 51.292H379.84ZM392.535 51.292V64.5H390.265V51.292H392.535ZM390.094 47.7886C390.094 47.4224 390.204 47.1131 390.423 46.8608C390.651 46.6086 390.985 46.4824 391.424 46.4824C391.856 46.4824 392.185 46.6086 392.413 46.8608C392.649 47.1131 392.767 47.4224 392.767 47.7886C392.767 48.1385 392.649 48.4396 392.413 48.6919C392.185 48.936 391.856 49.0581 391.424 49.0581C390.985 49.0581 390.651 48.936 390.423 48.6919C390.204 48.4396 390.094 48.1385 390.094 47.7886ZM401.69 51.292V53.0254H394.549V51.292H401.69ZM396.966 48.0815H399.225V61.2285C399.225 61.6761 399.294 62.0138 399.432 62.2417C399.57 62.4696 399.75 62.6201 399.969 62.6934C400.189 62.7666 400.425 62.8032 400.677 62.8032C400.864 62.8032 401.06 62.7869 401.263 62.7544C401.475 62.7137 401.633 62.6812 401.739 62.6567L401.751 64.5C401.572 64.557 401.336 64.6099 401.043 64.6587C400.759 64.7157 400.413 64.7441 400.006 64.7441C399.452 64.7441 398.944 64.6343 398.48 64.4146C398.016 64.1948 397.646 63.8286 397.369 63.3159C397.101 62.7951 396.966 62.0952 396.966 61.2163V48.0815ZM406.598 45.75V64.5H404.339V45.75H406.598ZM406.061 57.3955L405.121 57.3589C405.129 56.4556 405.263 55.6214 405.523 54.8564C405.784 54.0833 406.15 53.4119 406.622 52.8423C407.094 52.2726 407.656 51.8332 408.307 51.5239C408.966 51.2065 409.694 51.0479 410.492 51.0479C411.143 51.0479 411.729 51.1374 412.25 51.3164C412.77 51.4873 413.214 51.764 413.58 52.1465C413.954 52.529 414.239 53.0254 414.435 53.6357C414.63 54.238 414.728 54.9744 414.728 55.8452V64.5H412.457V55.8208C412.457 55.1291 412.355 54.5757 412.152 54.1606C411.948 53.7375 411.651 53.4323 411.261 53.2451C410.87 53.0498 410.39 52.9521 409.82 52.9521C409.259 52.9521 408.746 53.0701 408.282 53.3062C407.826 53.5422 407.432 53.8677 407.098 54.2827C406.773 54.6978 406.516 55.1738 406.329 55.7109C406.15 56.2399 406.061 56.8014 406.061 57.3955ZM437.787 55.6499V62.1562C437.567 62.4818 437.217 62.848 436.737 63.2549C436.257 63.6536 435.593 64.0036 434.747 64.3047C433.909 64.5977 432.826 64.7441 431.5 64.7441C430.418 64.7441 429.421 64.557 428.509 64.1826C427.606 63.8001 426.821 63.2467 426.153 62.5225C425.494 61.79 424.981 60.903 424.615 59.8613C424.257 58.8115 424.078 57.6234 424.078 56.2969V54.9175C424.078 53.591 424.233 52.4069 424.542 51.3652C424.859 50.3236 425.323 49.4406 425.934 48.7163C426.544 47.9839 427.293 47.4305 428.18 47.0562C429.067 46.6737 430.084 46.4824 431.231 46.4824C432.59 46.4824 433.726 46.7184 434.637 47.1904C435.557 47.6543 436.273 48.2972 436.786 49.1191C437.306 49.9411 437.64 50.877 437.787 51.9268H435.431C435.325 51.2839 435.113 50.6979 434.796 50.1689C434.487 49.64 434.043 49.2168 433.465 48.8994C432.888 48.5739 432.143 48.4111 431.231 48.4111C430.41 48.4111 429.697 48.5617 429.095 48.8628C428.493 49.1639 427.997 49.5952 427.606 50.1567C427.215 50.7183 426.922 51.3978 426.727 52.1953C426.54 52.9928 426.446 53.8921 426.446 54.8931V56.2969C426.446 57.3223 426.564 58.2378 426.8 59.0435C427.044 59.8491 427.39 60.5368 427.838 61.1064C428.285 61.668 428.819 62.0952 429.437 62.3882C430.064 62.6812 430.755 62.8276 431.512 62.8276C432.35 62.8276 433.03 62.7585 433.551 62.6201C434.072 62.4736 434.479 62.3027 434.771 62.1074C435.064 61.904 435.288 61.7127 435.443 61.5337V57.5542H431.329V55.6499H437.787ZM440.753 58.0425V57.7617C440.753 56.8096 440.891 55.9266 441.168 55.1128C441.445 54.2909 441.843 53.5788 442.364 52.9766C442.885 52.3662 443.516 51.8942 444.256 51.5605C444.997 51.2188 445.827 51.0479 446.747 51.0479C447.674 51.0479 448.508 51.2188 449.249 51.5605C449.998 51.8942 450.632 52.3662 451.153 52.9766C451.682 53.5788 452.085 54.2909 452.362 55.1128C452.639 55.9266 452.777 56.8096 452.777 57.7617V58.0425C452.777 58.9946 452.639 59.8776 452.362 60.6914C452.085 61.5052 451.682 62.2173 451.153 62.8276C450.632 63.4299 450.002 63.9019 449.261 64.2437C448.529 64.5773 447.699 64.7441 446.771 64.7441C445.843 64.7441 445.009 64.5773 444.269 64.2437C443.528 63.9019 442.893 63.4299 442.364 62.8276C441.843 62.2173 441.445 61.5052 441.168 60.6914C440.891 59.8776 440.753 58.9946 440.753 58.0425ZM443.011 57.7617V58.0425C443.011 58.7017 443.089 59.3242 443.243 59.9102C443.398 60.488 443.63 61.0007 443.939 61.4482C444.256 61.8958 444.651 62.2498 445.123 62.5103C445.595 62.7625 446.144 62.8887 446.771 62.8887C447.389 62.8887 447.931 62.7625 448.395 62.5103C448.867 62.2498 449.257 61.8958 449.566 61.4482C449.876 61.0007 450.108 60.488 450.262 59.9102C450.425 59.3242 450.506 58.7017 450.506 58.0425V57.7617C450.506 57.1107 450.425 56.4963 450.262 55.9185C450.108 55.3325 449.872 54.8158 449.554 54.3682C449.245 53.9124 448.854 53.5544 448.382 53.2939C447.918 53.0335 447.373 52.9033 446.747 52.9033C446.128 52.9033 445.583 53.0335 445.111 53.2939C444.647 53.5544 444.256 53.9124 443.939 54.3682C443.63 54.8158 443.398 55.3325 443.243 55.9185C443.089 56.4963 443.011 57.1107 443.011 57.7617ZM455.011 58.0425V57.7617C455.011 56.8096 455.149 55.9266 455.426 55.1128C455.702 54.2909 456.101 53.5788 456.622 52.9766C457.143 52.3662 457.774 51.8942 458.514 51.5605C459.255 51.2188 460.085 51.0479 461.004 51.0479C461.932 51.0479 462.766 51.2188 463.507 51.5605C464.256 51.8942 464.89 52.3662 465.411 52.9766C465.94 53.5788 466.343 54.2909 466.62 55.1128C466.896 55.9266 467.035 56.8096 467.035 57.7617V58.0425C467.035 58.9946 466.896 59.8776 466.62 60.6914C466.343 61.5052 465.94 62.2173 465.411 62.8276C464.89 63.4299 464.26 63.9019 463.519 64.2437C462.787 64.5773 461.957 64.7441 461.029 64.7441C460.101 64.7441 459.267 64.5773 458.526 64.2437C457.786 63.9019 457.151 63.4299 456.622 62.8276C456.101 62.2173 455.702 61.5052 455.426 60.6914C455.149 59.8776 455.011 58.9946 455.011 58.0425ZM457.269 57.7617V58.0425C457.269 58.7017 457.346 59.3242 457.501 59.9102C457.656 60.488 457.888 61.0007 458.197 61.4482C458.514 61.8958 458.909 62.2498 459.381 62.5103C459.853 62.7625 460.402 62.8887 461.029 62.8887C461.647 62.8887 462.188 62.7625 462.652 62.5103C463.124 62.2498 463.515 61.8958 463.824 61.4482C464.133 61.0007 464.365 60.488 464.52 59.9102C464.683 59.3242 464.764 58.7017 464.764 58.0425V57.7617C464.764 57.1107 464.683 56.4963 464.52 55.9185C464.365 55.3325 464.129 54.8158 463.812 54.3682C463.503 53.9124 463.112 53.5544 462.64 53.2939C462.176 53.0335 461.631 52.9033 461.004 52.9033C460.386 52.9033 459.841 53.0335 459.369 53.2939C458.905 53.5544 458.514 53.9124 458.197 54.3682C457.888 54.8158 457.656 55.3325 457.501 55.9185C457.346 56.4963 457.269 57.1107 457.269 57.7617ZM478.424 51.292H480.475V64.2192C480.475 65.383 480.239 66.3758 479.767 67.1978C479.295 68.0197 478.635 68.6423 477.789 69.0654C476.951 69.4967 475.982 69.7124 474.884 69.7124C474.428 69.7124 473.891 69.6392 473.272 69.4927C472.662 69.3543 472.06 69.1143 471.466 68.7725C470.88 68.4388 470.388 67.9871 469.989 67.4175L471.173 66.0747C471.726 66.742 472.304 67.2059 472.906 67.4663C473.517 67.7267 474.119 67.8569 474.713 67.8569C475.429 67.8569 476.048 67.7227 476.568 67.4541C477.089 67.1855 477.492 66.7868 477.777 66.2578C478.07 65.737 478.216 65.0941 478.216 64.3291V54.1973L478.424 51.292ZM469.33 58.0425V57.7861C469.33 56.777 469.448 55.8615 469.684 55.0396C469.928 54.2095 470.274 53.4974 470.721 52.9033C471.177 52.3092 471.726 51.8535 472.369 51.5361C473.012 51.2106 473.736 51.0479 474.542 51.0479C475.372 51.0479 476.096 51.1943 476.715 51.4873C477.341 51.7721 477.87 52.1912 478.302 52.7446C478.741 53.2899 479.087 53.9491 479.339 54.7222C479.592 55.4953 479.767 56.3701 479.864 57.3467V58.4697C479.775 59.4382 479.6 60.3089 479.339 61.082C479.087 61.8551 478.741 62.5143 478.302 63.0596C477.87 63.6048 477.341 64.0239 476.715 64.3169C476.088 64.6017 475.356 64.7441 474.518 64.7441C473.728 64.7441 473.012 64.5773 472.369 64.2437C471.734 63.91 471.189 63.4421 470.733 62.8398C470.278 62.2376 469.928 61.5296 469.684 60.7158C469.448 59.8939 469.33 59.0028 469.33 58.0425ZM471.588 57.7861V58.0425C471.588 58.7017 471.653 59.3201 471.783 59.8979C471.922 60.4757 472.129 60.9844 472.406 61.4238C472.691 61.8633 473.053 62.2091 473.492 62.4614C473.932 62.7056 474.457 62.8276 475.067 62.8276C475.816 62.8276 476.434 62.6689 476.922 62.3516C477.411 62.0342 477.797 61.6151 478.082 61.0942C478.375 60.5734 478.603 60.0078 478.766 59.3975V56.4556C478.676 56.008 478.538 55.5767 478.351 55.1616C478.172 54.7384 477.936 54.3641 477.643 54.0386C477.358 53.7049 477.004 53.4404 476.581 53.2451C476.157 53.0498 475.661 52.9521 475.091 52.9521C474.473 52.9521 473.94 53.0824 473.492 53.3428C473.053 53.5951 472.691 53.945 472.406 54.3926C472.129 54.832 471.922 55.3447 471.783 55.9307C471.653 56.5085 471.588 57.127 471.588 57.7861ZM486.358 45.75V64.5H484.088V45.75H486.358ZM495.465 64.7441C494.545 64.7441 493.711 64.5895 492.962 64.2803C492.222 63.9629 491.583 63.5194 491.046 62.9497C490.517 62.38 490.11 61.7046 489.825 60.9233C489.54 60.1421 489.398 59.2876 489.398 58.3599V57.8472C489.398 56.7729 489.557 55.8167 489.874 54.9785C490.191 54.1322 490.623 53.416 491.168 52.8301C491.713 52.2441 492.332 51.8006 493.023 51.4995C493.715 51.1984 494.431 51.0479 495.172 51.0479C496.116 51.0479 496.93 51.2106 497.613 51.5361C498.305 51.8617 498.871 52.3174 499.31 52.9033C499.75 53.4811 500.075 54.1647 500.287 54.9541C500.498 55.7354 500.604 56.5898 500.604 57.5176V58.5308H490.741V56.6875H498.346V56.5166C498.313 55.9307 498.191 55.361 497.979 54.8076C497.776 54.2542 497.451 53.7985 497.003 53.4404C496.555 53.0824 495.945 52.9033 495.172 52.9033C494.659 52.9033 494.187 53.0132 493.756 53.2329C493.325 53.4445 492.954 53.7619 492.645 54.1851C492.336 54.6082 492.096 55.125 491.925 55.7354C491.754 56.3457 491.668 57.0496 491.668 57.8472V58.3599C491.668 58.9865 491.754 59.5765 491.925 60.1299C492.104 60.6751 492.36 61.1553 492.694 61.5703C493.036 61.9854 493.447 62.3109 493.927 62.5469C494.415 62.7829 494.968 62.9009 495.587 62.9009C496.384 62.9009 497.06 62.7381 497.613 62.4126C498.167 62.0871 498.651 61.6517 499.066 61.1064L500.433 62.1929C500.148 62.6242 499.786 63.0352 499.347 63.4258C498.907 63.8164 498.366 64.1338 497.723 64.3779C497.088 64.6221 496.336 64.7441 495.465 64.7441Z" fill="#2F2F2F"/>
<defs>
<filter id="filter0_d_325_1767" x="0" y="0" width="736" height="121" filterUnits="userSpaceOnUse" color-interpolation-filters="sRGB">
<feFlood flood-opacity="0" result="BackgroundImageFix"/>
<feColorMatrix in="SourceAlpha" type="matrix" values="0 0 0 0 0 0 0 0 0 0 0 0 0 0 0 0 0 0 127 0" result="hardAlpha"/>
<feOffset dy="4"/>
<feGaussianBlur stdDeviation="7.5"/>
<feComposite in2="hardAlpha" operator="out"/>
<feColorMatrix type="matrix" values="0 0 0 0 0 0 0 0 0 0 0 0 0 0 0 0 0 0 0.11 0"/>
<feBlend mode="normal" in2="BackgroundImageFix" result="effect1_dropShadow_325_1767"/>
<feBlend mode="normal" in="SourceGraphic" in2="effect1_dropShadow_325_1767" result="shape"/>
</filter>
</defs>
</svg>
